snake_rectilinear_motion_v1.mot			
version=1			
nRows=72			
nColumns=4			
inDegrees=yes			
			
Units are S.I. units (second, meters, Newtons, ...)			
Angles are in degrees.			
			
endheader			
time	rib0_tx	rib1_tx	rib2_tx
0.000	0.000	0.000	0.000
0.010	0.000	0.000	0.000
0.020	0.000	0.000	0.000
0.030	0.000	0.000	0.000
0.040	0.000	0.000	0.001
0.060	0.000	0.000	0.001
0.070	0.000	0.000	0.001
0.080	0.000	0.000	0.001
0.090	0.000	0.000	0.002
0.100	0.000	0.000	0.002
0.110	0.000	0.000	0.002
0.120	0.000	0.000	0.002
0.130	0.000	0.000	0.003
0.140	0.000	0.000	0.003
0.150	0.000	0.000	0.003
0.160	0.000	0.000	0.003
0.170	0.000	0.000	0.004
0.180	0.000	0.000	0.004
0.190	0.000	0.000	0.004
0.200	0.000	0.000	0.004
0.210	0.000	0.000	0.005
0.220	0.000	0.000	0.005
0.230	0.000	0.000	0.005
0.240	0.000	0.000	0.005
0.250	0.001	0.001	0.006
0.260	0.001	0.001	0.006
0.270	0.001	0.001	0.006
0.280	0.001	0.001	0.006
0.290	0.002	0.002	0.005
0.300	0.002	0.002	0.005
0.310	0.002	0.002	0.005
0.320	0.002	0.002	0.005
0.330	0.003	0.003	0.004
0.340	0.003	0.003	0.004
0.350	0.003	0.003	0.004
0.360	0.003	0.003	0.004
0.370	0.004	0.004	0.003
0.380	0.004	0.004	0.003
0.390	0.004	0.004	0.003
0.400	0.004	0.004	0.003
0.410	0.005	0.005	0.002
0.420	0.005	0.005	0.002
0.430	0.005	0.005	0.002
0.440	0.005	0.005	0.002
0.450	0.006	0.006	0.001
0.460	0.006	0.006	0.001
0.470	0.006	0.006	0.001
0.480	0.006	0.006	0.001
0.490	0.007	0.005	0.001
0.500	0.007	0.005	0.001
0.510	0.007	0.005	0.001
0.520	0.007	0.005	0.001
0.530	0.008	0.004	0.001
0.540	0.008	0.004	0.001
0.550	0.008	0.004	0.001
0.560	0.008	0.004	0.001
0.570	0.009	0.003	0.001
0.580	0.009	0.003	0.001
0.590	0.009	0.003	0.001
0.600	0.009	0.003	0.001
0.610	0.010	0.002	0.001
0.620	0.010	0.002	0.001
0.630	0.010	0.002	0.001
0.640	0.010	0.002	0.001
0.650	0.011	0.001	0.001
0.660	0.011	0.001	0.001
0.670	0.011	0.001	0.001
0.680	0.011	0.001	0.001
0.690	0.012	0.001	0.001
0.700	0.012	0.001	0.001
0.710	0.012	0.001	0.001
0.720	0.012	0.001	0.001
